<?xml version="1.0" encoding="UTF-8"?>
<svg xmlns="http://www.w3.org/2000/svg" xmlns:xlink="http://www.w3.org/1999/xlink" width="414pt" height="499pt" viewBox="0 0 414 499" version="1.1">
<g id="surface1">
<path style=" stroke:none;fill-rule:nonzero;fill:rgb(29.411765%,75.294118%,67.843137%);fill-opacity:1;" d="M 140.082031 172.453125 C 163.269531 147.855469 196.382812 130.917969 232.863281 130.917969 C 303.054688 130.917969 359.964844 187.109375 359.964844 257.269531 C 359.964844 304.042969 334.191406 350.90625 296.511719 372.941406 C 291.210938 390.824219 287.574219 404.34375 285.824219 427.027344 C 359.671875 404.679688 412.644531 338.367188 412.644531 257.269531 C 412.644531 158.03125 332.835938 80.960938 233.535156 80.960938 C 176.859375 80.960938 127.335938 106.5 94.378906 147.445312 C 94.378906 147.445312 120.519531 154.804688 140.117188 172.328125 "/>
<path style=" stroke:none;fill-rule:nonzero;fill:rgb(29.411765%,75.294118%,67.843137%);fill-opacity:1;" d="M 110.988281 222.714844 C 107.160156 234.835938 106.097656 243.886719 106.097656 257.269531 C 106.097656 329.933594 163.886719 385.316406 234.082031 385.316406 C 230.148438 401.367188 228.003906 414.054688 226.382812 432.476562 C 212.84375 432.316406 199.644531 431.359375 186.96875 428.320312 C 109.535156 409.796875 51.554688 340.65625 53.058594 257.269531 C 53.449219 236.246094 55.710938 218.226562 63.316406 199.355469 C 63.316406 199.355469 90.371094 201.300781 110.988281 222.714844 "/>
<path style=" stroke:none;fill-rule:nonzero;fill:rgb(0%,30.980392%,63.921569%);fill-opacity:1;" d="M 231.054688 217.332031 C 231.054688 217.332031 232.429688 230.347656 233.523438 238.757812 C 233.523438 238.757812 233.628906 241.332031 237.238281 242.363281 L 247.085938 245.527344 C 247.085938 245.527344 254.3125 247.789062 253.417969 255.230469 L 252.386719 266.964844 C 252.386719 266.964844 256.203125 261.054688 262.410156 261.390625 C 262.410156 261.390625 270.742188 262.390625 270.574219 270.800781 C 270.574219 270.800781 269.898438 279.597656 272.71875 282.089844 C 272.71875 282.089844 274.863281 286.484375 287.847656 287.738281 C 293.714844 288.179688 298.355469 291.226562 298.355469 291.226562 C 308.0625 298.785156 301.289062 311.09375 301.289062 311.09375 C 301.289062 311.09375 282.355469 351.949219 274.054688 390.832031 C 274.054688 390.832031 256.636719 452.394531 272.78125 497.304688 L 250.019531 497.304688 C 225.40625 421.929688 275.140625 318.074219 275.140625 318.074219 C 275.140625 318.074219 280.734375 307.816406 273.277344 306.46875 C 270.582031 305.964844 270.109375 305.890625 266.839844 305.28125 C 266.839844 305.28125 254.457031 304.554688 257.246094 289.261719 C 259.277344 278.066406 250.019531 283.550781 250.019531 283.550781 C 240.089844 288.859375 239.40625 280.964844 239.40625 280.964844 C 238.964844 276.898438 238.269531 270.359375 238.269531 270.359375 C 237.828125 266.070312 235.34375 265.734375 235.34375 265.734375 L 224.320312 263.398438 C 216.117188 261.390625 215.925781 253.875 215.925781 253.875 L 214.339844 234.480469 C 214.117188 225.804688 205.640625 228.382812 205.640625 228.382812 C 200.675781 229.726562 184.539062 232.101562 184.539062 232.101562 C 184.539062 232.101562 175.144531 234.585938 160.847656 231.261719 C 150.109375 228.308594 136.476562 221.160156 120.625 207.609375 C 105.277344 193.964844 85.183594 186.511719 85.183594 186.511719 C 44.085938 172.75 2.011719 190.703125 2.011719 190.703125 L 2.011719 167 C 2.011719 167 37.300781 148.035156 86.984375 163.152344 C 86.984375 163.152344 111.828125 168.910156 138.917969 192.386719 C 138.917969 192.386719 147.792969 200.15625 158.480469 205.570312 C 158.480469 205.570312 168.980469 211.980469 185.199219 209.722656 C 204.957031 206.695312 216.621094 206.222656 216.621094 206.222656 C 216.621094 206.222656 230.242188 204.707031 231.054688 217.332031 "/>
</g>
</svg>
